# xmcd
#
# Track frame offsets:
#	150
#	11965
#	24927
#	40960
#	55540
#	69102
#	85055
#	97602
#	109877
#	122827
#	136325
#	150197
#	164527
#	177600
#	191215
#	204510
#	216790
#	229507
#	240730
#	253885
#	268505
#	280450
#	293607
#	305497
#
# Disc length: 4246 seconds
#
# Revision: 0
# Processed by: cddbd v1.4PL0 Copyright (c) Steve Scherf et al.
# Submitted via: dBpowerAMP V4.0
#
DISCID=4d109418
DTITLE=Various Artist - Deep South Blues Piano
DYEAR=1900
DGENRE=Blues
TTITLE0=Please Don't Do It No More - Harry Chatmon
TTITLE1=Letter From Texas - Harry Chatmon
TTITLE2=Hoo Doo Blues - Harry Chatmon
TTITLE3=Smoke-Stack Blues - Harry Chatmon
TTITLE4=Deep Blue Ocean Blues - Harry Chatmon
TTITLE5=These Jackson Women Will Not Treat You Right - Harry Chatmon
TTITLE6=Black Ants Blues - Harry Chatmon
TTITLE7=Quarrelin' Mama Blues - Harry Chatmon
TTITLE8=Rootin' Ground-Hog Blues - Blind Mack
TTITLE9=Keep Your Good Women Home - Blind Mack
TTITLE10=Short Hair Blues - Kid Stormy Weather
TTITLE11=Bread And Water Blues - Kid Stormy Weather
TTITLE12=If I Leave Her Running - Mack Rhinehart and Brownie Stubblefield
TTITLE13=Dirty No Gooder - Mack Rhinehart and Brownie Stubblefield
TTITLE14=Clay County Blues - Mack Rhinehart and Brownie Stubblefield
TTITLE15=Lonesome House Blues - Mack Rhinehart and Brownie Stubblefield
TTITLE16=Lost Woman Blues - Mack Rhinehart and Brownie Stubblefield
TTITLE17=You Don't Know My Mind - Mack Rhinehart and Brownie Stubblefield
TTITLE18=Broke And Hungry - Mack Rhinehart and Brownie Stubblefield
TTITLE19=T.P.N. Moaner - Mack Rhinehart and Brownie Stubblefield
TTITLE20=I Can't Take It Anymore - Mack Rhinehart and Brownie Stubblefield
TTITLE21=Uptown Blues - Mack Rhinehart and Brownie Stubblefield
TTITLE22=Blues After Sundown - Mack Rhinehart and Brownie Stubblefield
TTITLE23=Open Back Door Blues - Mack Rhinehart and Brownie Stubblefield
EXTD=
EXTT0=
EXTT1=
EXTT2=
EXTT3=
EXTT4=
EXTT5=
EXTT6=
EXTT7=
EXTT8=
EXTT9=
EXTT10=
EXTT11=
EXTT12=
EXTT13=
EXTT14=
EXTT15=
EXTT16=
EXTT17=
EXTT18=
EXTT19=
EXTT20=
EXTT21=
EXTT22=
EXTT23=
PLAYORDER=
